<svg width="24" height="25" viewBox="0 0 24 25" fill="none" xmlns="http://www.w3.org/2000/svg">
<path d="M5 11.75C4.58579 11.75 4.25 12.0858 4.25 12.5C4.25 12.9142 4.58579 13.25 5 13.25V11.75ZM19 13.25C19.4142 13.25 19.75 12.9142 19.75 12.5C19.75 12.0858 19.4142 11.75 19 11.75V13.25ZM12.75 5.5C12.75 5.08579 12.4142 4.75 12 4.75C11.5858 4.75 11.25 5.08579 11.25 5.5H12.75ZM11.25 19.5C11.25 19.9142 11.5858 20.25 12 20.25C12.4142 20.25 12.75 19.9142 12.75 19.5H11.25ZM5 13.25H19V11.75H5V13.25ZM11.25 5.5V19.5H12.75V5.5H11.25Z" fill="#5D74F1"/>
</svg>
