<svg width="22" height="18" viewBox="0 0 22 18" fill="none" xmlns="http://www.w3.org/2000/svg">
<g clip-path="url(#clip0_19_3126)">
<path opacity="0.992" fill-rule="evenodd" clip-rule="evenodd" d="M2.44531 -0.0234386C4.05477 -0.0312486 5.66413 -0.0234387 7.27344 1.30758e-06C7.35528 0.0220713 7.43342 0.0533313 7.50781 0.0937513C8.42164 0.714771 9.3435 1.32414 10.2734 1.92188C12.2735 1.93749 14.2734 1.95314 16.2734 1.96875C17.9778 2.259 18.884 3.26681 18.9922 4.99219C18.3047 4.99219 17.6172 4.99219 16.9297 4.99219C16.9182 4.50797 16.6838 4.18767 16.2266 4.03125C14.0213 4.03031 11.8182 3.99909 9.6172 3.9375C8.6248 3.30853 7.64042 2.66794 6.66406 2.01563C5.38283 1.98436 4.10155 1.98436 2.82031 2.01563C2.32721 2.14931 2.05377 2.46961 2 2.97656C1.96875 6.97655 1.96875 10.9766 2 14.9766C2.10044 15.6315 2.48325 15.9597 3.14844 15.9609C3.66043 13.2838 4.19947 10.6119 4.76563 7.9453C5.19486 6.89142 5.9683 6.243 7.08594 6C11.4609 5.96874 15.836 5.96874 20.2109 6C21.3835 6.3772 21.8913 7.1819 21.7344 8.4141C21.2404 10.8997 20.7404 13.3841 20.2344 15.8672C19.8282 16.9919 19.0391 17.6872 17.8672 17.9531C12.7265 17.9844 7.58595 17.9844 2.44531 17.9531C1.08547 17.6481 0.26516 16.8121 -0.0156243 15.4453C-0.0468752 11.1328 -0.0468752 6.82031 -0.0156243 2.50781C0.26092 1.12977 1.08124 0.286021 2.44531 -0.0234386Z" fill="#5D74F1"/>
</g>
<defs>
<clipPath id="clip0_19_3126">
<rect width="22" height="18" fill="white"/>
</clipPath>
</defs>
</svg>
