<svg width="24" height="24" viewBox="0 0 24 24" fill="none" xmlns="http://www.w3.org/2000/svg">
<path d="M2.99987 17H20.9999C21.2547 17.0003 21.4999 17.0979 21.6852 17.2728C21.8706 17.4478 21.9821 17.687 21.997 17.9414C22.012 18.1958 21.9292 18.4464 21.7656 18.6418C21.602 18.8373 21.37 18.9629 21.1169 18.993L20.9999 19H2.99987C2.74499 18.9997 2.49984 18.9021 2.3145 18.7272C2.12916 18.5522 2.01763 18.313 2.0027 18.0586C1.98776 17.8042 2.07054 17.5536 2.23413 17.3582C2.39772 17.1627 2.62977 17.0371 2.88287 17.007L2.99987 17H20.9999H2.99987ZM2.99987 11L20.9999 10.998C21.2547 10.9983 21.4999 11.0959 21.6852 11.2708C21.8706 11.4458 21.9821 11.685 21.997 11.9394C22.012 12.1938 21.9292 12.4444 21.7656 12.6398C21.602 12.8353 21.37 12.9609 21.1169 12.991L20.9999 12.998L2.99987 13C2.74499 12.9997 2.49984 12.9021 2.3145 12.7272C2.12916 12.5522 2.01763 12.313 2.0027 12.0586C1.98776 11.8042 2.07054 11.5536 2.23413 11.3582C2.39772 11.1627 2.62977 11.0371 2.88287 11.007L2.99987 11L20.9999 10.998L2.99987 11ZM2.99987 5H20.9999C21.2547 5.00028 21.4999 5.09788 21.6852 5.27285C21.8706 5.44782 21.9821 5.68695 21.997 5.94139C22.012 6.19584 21.9292 6.44638 21.7656 6.64183C21.602 6.83729 21.37 6.9629 21.1169 6.993L20.9999 7H2.99987C2.74499 6.99972 2.49984 6.90212 2.3145 6.72715C2.12916 6.55218 2.01763 6.31305 2.0027 6.05861C1.98776 5.80416 2.07054 5.55362 2.23413 5.35817C2.39772 5.16271 2.62977 5.0371 2.88287 5.007L2.99987 5H20.9999H2.99987Z" fill="#707991"/>
</svg>
