<svg width="24" height="24" viewBox="0 0 24 24" fill="none" xmlns="http://www.w3.org/2000/svg">
<path d="M12.2999 2.90007C12.3999 3.00007 12.4999 3.00007 12.5999 3.10007C13.2999 3.70007 13.8999 4.20007 14.5999 4.80007C14.8999 5.00007 15.1999 5.20007 15.4999 5.20007C16.3999 5.30007 17.1999 5.40007 18.0999 5.40007C18.5999 5.40007 18.6999 5.50007 18.7999 6.10007C18.8999 7.00007 18.8999 7.90007 18.9999 8.70007C18.9999 9.10007 19.1999 9.40007 19.3999 9.70007C19.9999 10.4001 20.4999 11.0001 21.0999 11.7001C21.3999 12.1001 21.3999 12.2001 21.0999 12.5001C20.5999 13.1001 19.9999 13.8001 19.4999 14.4001C19.1999 14.7001 18.9999 15.1001 18.9999 15.6001C18.8999 16.4001 18.7999 17.3001 18.7999 18.1001C18.7999 18.5001 18.5999 18.6001 18.1999 18.7001C17.3999 18.7001 16.5999 18.8001 15.6999 18.9001C15.1999 18.9001 14.6999 19.1001 14.2999 19.4001C13.6999 19.9001 12.9999 20.5001 12.3999 21.0001C12.0999 21.3001 11.8999 21.3001 11.5999 21.0001C10.8999 20.4001 10.1999 19.8001 9.59986 19.2001C9.29986 19.0001 8.99986 18.8001 8.69986 18.8001C7.79986 18.7001 6.89986 18.6001 5.99986 18.6001C5.59986 18.6001 5.49986 18.4001 5.39986 18.1001C5.39986 17.2001 5.29986 16.4001 5.19986 15.5001C5.19986 15.1001 4.99986 14.7001 4.79986 14.4001C4.19986 13.8001 3.69986 13.1001 3.19986 12.4001C2.79986 12.0001 2.89986 11.9001 3.19986 11.4001C3.79986 10.8001 4.29986 10.1001 4.89986 9.50007C5.19986 9.20007 5.29986 8.90007 5.29986 8.50007C5.29986 7.70007 5.39986 6.90007 5.49986 6.00007C5.49986 5.50007 5.59986 5.40007 6.09986 5.40007C6.99986 5.30007 7.79986 5.30007 8.69986 5.20007C9.09986 5.20007 9.39986 5.00007 9.69986 4.80007C10.3999 4.20007 11.0999 3.60007 11.7999 3.10007C11.8999 2.90007 12.0999 2.80007 12.2999 2.90007Z" fill="#00AA87"/>
<path d="M16.4 10.0999L16.2 10.2999L10.8 15.6999C10.7 15.7999 10.6 15.8999 10.4 15.6999L7.80004 13.0999C7.60004 12.8999 7.70004 12.7999 7.80004 12.6999C8.00004 12.4999 8.30004 12.0999 8.50004 12.0999C8.80004 12.0999 9.00004 12.4999 9.20004 12.6999L10.3 13.7999C10.5 13.9999 10.6 13.9999 10.8 13.7999L15.1 9.49989C15.3 9.29989 15.5 9.19989 15.7 9.49989C15.8 9.69989 16 9.79989 16.1 9.99989C16.3 9.99989 16.4 10.0999 16.4 10.0999Z" fill="white"/>
</svg>
