<svg width="14" height="14" viewBox="0 0 14 14" fill="none" xmlns="http://www.w3.org/2000/svg">
<path d="M4.95849 9.67532L2.74591 7.46274C2.63589 7.35648 2.48854 7.29768 2.33559 7.29901C2.18264 7.30034 2.03633 7.36169 1.92818 7.46985C1.82002 7.578 1.75868 7.72431 1.75735 7.87726C1.75602 8.0302 1.81481 8.17755 1.92107 8.28757L4.54607 10.9126C4.65546 11.0219 4.80381 11.0834 4.95849 11.0834C5.11317 11.0834 5.26151 11.0219 5.37091 10.9126L11.7876 4.49591C11.8938 4.38589 11.9526 4.23854 11.9513 4.08559C11.95 3.93264 11.8886 3.78633 11.7805 3.67818C11.6723 3.57002 11.526 3.50868 11.3731 3.50735C11.2201 3.50602 11.0728 3.56481 10.9627 3.67107L4.95849 9.67532Z" fill="#011627"/>
</svg>
