<svg width="14" height="14" viewBox="0 0 14 14" fill="none" xmlns="http://www.w3.org/2000/svg">
<path d="M4.95849 9.67483L2.74591 7.46225C2.63589 7.35599 2.48854 7.2972 2.33559 7.29852C2.18264 7.29985 2.03633 7.3612 1.92818 7.46936C1.82002 7.57751 1.75868 7.72382 1.75735 7.87677C1.75602 8.02972 1.81481 8.17707 1.92107 8.28708L4.54607 10.9121C4.65546 11.0214 4.80381 11.0829 4.95849 11.0829C5.11317 11.0829 5.26151 11.0214 5.37091 10.9121L11.7876 4.49542C11.8938 4.3854 11.9526 4.23805 11.9513 4.0851C11.95 3.93215 11.8886 3.78585 11.7805 3.67769C11.6723 3.56954 11.526 3.50819 11.3731 3.50686C11.2201 3.50553 11.0728 3.56433 10.9627 3.67058L4.95849 9.67483Z" fill="white"/>
</svg>
