<svg width="24" height="24" viewBox="0 0 24 24" fill="none" xmlns="http://www.w3.org/2000/svg">
<path d="M11.0305 2.95058C6.53842 2.95058 2.87793 6.61107 2.87793 11.1031C2.87793 15.5952 6.53842 19.2557 11.0305 19.2557C15.5225 19.2557 19.183 15.5952 19.183 11.1031C19.183 6.61107 15.5225 2.95058 11.0305 2.95058ZM14.748 9.74165L11.3973 12.2608C11.381 12.2689 11.3566 12.2771 11.3403 12.2934C11.3158 12.3015 11.2995 12.3097 11.275 12.3179C11.2017 12.3586 11.112 12.3831 11.0305 12.3831C10.9489 12.3831 10.8674 12.3586 10.794 12.326C10.7777 12.3178 10.7614 12.3097 10.737 12.3015C10.7207 12.2934 10.7044 12.2852 10.6881 12.2771L8.24229 10.5977C7.96511 10.4102 7.89176 10.027 8.08742 9.74979C8.27492 9.47261 8.65808 9.39924 8.93526 9.58675L11.0142 11.0134L14.0143 8.76334C14.2833 8.55953 14.6665 8.61659 14.8703 8.88563C15.0741 9.15466 15.0171 9.53783 14.748 9.74165Z" fill="#5D74F1"/>
</svg>
