<svg width="73" height="73" viewBox="0 0 73 73" fill="none" xmlns="http://www.w3.org/2000/svg">
<g id="free-icon-businessman-6998058 1">
<g id="Group">
<path id="Vector" opacity="0.995" fill-rule="evenodd" clip-rule="evenodd" d="M66.2278 53.538C64.8272 51.4252 62.9261 49.9519 60.5246 49.1181C60.5246 49.023 60.4772 48.9755 60.3821 48.9755C57.0349 47.3259 53.6606 45.7101 50.259 44.1279C50.2115 43.9853 50.1164 43.8902 49.9739 43.8427C48.394 42.8629 46.7781 41.96 45.1262 41.1337C45.1262 39.2802 45.1262 37.4267 45.1262 35.5732C45.6237 34.7692 46.1227 33.9614 46.6233 33.1494C47.1266 31.8771 47.6018 30.5939 48.0491 29.2998C48.6637 29.1113 49.1864 28.7786 49.6174 28.3017C50.833 26.4329 51.3084 24.3894 51.0432 22.1709C50.8762 21.174 50.3297 20.5087 49.4035 20.1748C49.6204 17.7866 49.9292 15.4104 50.3303 13.0459C50.6059 11.0062 49.9167 9.36655 48.2629 8.12691C47.5727 7.71041 46.8598 7.3302 46.1243 6.98629C46.4443 6.68866 46.8246 6.49856 47.2649 6.41598C46.7897 6.2734 46.3143 6.13082 45.8391 5.98824C44.7639 5.37942 43.6709 4.80911 42.5598 4.27731C41.6596 4.03633 40.7565 4.01258 39.8508 4.20602C39.6803 4.15673 39.6803 4.08544 39.8508 3.99215C40.3034 3.74623 40.7786 3.55613 41.2766 3.42184C38.9963 2.95381 36.7151 2.95381 34.4328 3.42184C33.2717 4.08103 33.1291 3.8434 34.0051 2.70895C33.2349 2.73568 32.522 2.97331 31.8664 3.42184C31.1031 4.04288 30.3902 4.70825 29.7278 5.41793C25.8546 5.72777 23.4071 7.74763 22.385 11.4775C22.3398 14.3087 22.6011 17.1128 23.1692 19.8896C23.1428 20.0442 23.0953 20.1867 23.0266 20.3173C22.4015 20.5874 21.9975 21.0626 21.8147 21.7431C21.3661 24.1781 21.8413 26.4118 23.2405 28.4443C23.6635 28.8579 24.1625 29.1431 24.7375 29.2998C25.3111 31.3968 26.1904 33.3453 27.3752 35.1455C27.4465 37.141 27.4703 39.1371 27.4465 41.1337C25.8494 42.0505 24.281 43.0011 22.7414 43.9853C19.2748 45.5762 15.8529 47.2397 12.4758 48.9755C12.3344 48.951 12.2394 48.9986 12.1907 49.1181C9.92248 50.0557 8.02143 51.4815 6.48753 53.3955C1.99364 45.2468 0.876786 36.6445 3.13695 27.5888C5.64391 18.6217 10.848 11.7066 18.7493 6.84371C28.6539 1.3163 38.9195 0.555882 49.5461 4.56246C58.2672 8.34078 64.5168 14.5904 68.2952 23.3115C71.6198 32.0559 71.6198 40.8008 68.2952 49.5459C67.7132 50.948 67.0239 52.2788 66.2278 53.538Z" fill="#B9C4FF" fill-opacity="0.24"/>
</g>
<g id="Group_2">
<path id="Vector_2" fill-rule="evenodd" clip-rule="evenodd" d="M49.4034 20.1748C48.5396 21.7693 48.0167 23.4802 47.8351 25.3076C47.5499 25.3076 47.2648 25.3076 46.9796 25.3076C47.1196 23.5512 47.1434 21.7928 47.0509 20.0322C46.5824 19.2141 46.1308 18.3825 45.6964 17.5371C45.8296 16.7123 45.8772 15.8806 45.839 15.042C43.3968 15.5979 40.9255 15.8118 38.4249 15.6836C35.5024 15.3917 32.9359 14.2986 30.7257 12.4043C28.3043 12.5331 26.7121 13.7451 25.9493 16.04C25.9111 16.9187 25.9349 17.798 26.0206 18.6777C26.0473 19.5931 25.8809 20.4722 25.5216 21.3154C25.4503 22.6453 25.4266 23.9761 25.4503 25.3076C25.1177 25.3076 24.7849 25.3076 24.4523 25.3076C24.4419 23.7431 24.1805 22.2222 23.6681 20.7451C23.5386 20.4687 23.3248 20.3261 23.0265 20.3174C23.0952 20.1868 23.1427 20.0442 23.1691 19.8896C22.601 17.1128 22.3397 14.3087 22.3849 11.4775C23.407 7.74767 25.8545 5.72781 29.7277 5.41797C30.3901 4.70829 31.103 4.04292 31.8663 3.42188C32.5219 2.97335 33.2348 2.73572 34.005 2.70898C33.129 3.84344 33.2716 4.08107 34.4327 3.42188C36.715 2.95385 38.9962 2.95385 41.2765 3.42188C40.7785 3.55617 40.3032 3.74627 39.8507 3.99219C39.6802 4.08548 39.6802 4.15677 39.8507 4.20605C40.7564 4.01262 41.6594 4.03637 42.5597 4.27734C43.6708 4.80915 44.7638 5.37946 45.839 5.98828C46.3142 6.13086 46.7896 6.27344 47.2648 6.41602C46.8245 6.4986 46.4442 6.6887 46.1241 6.98633C46.8597 7.33024 47.5726 7.71045 48.2628 8.12695C49.9166 9.36658 50.6058 11.0062 50.3302 13.0459C49.9291 15.4104 49.6203 17.7866 49.4034 20.1748Z" fill="#343843"/>
</g>
<g id="Group_3">
<path id="Vector_3" fill-rule="evenodd" clip-rule="evenodd" d="M49.4031 20.1748C50.3293 20.5087 50.8758 21.174 51.0427 22.1709C51.3079 24.3894 50.8326 26.433 49.617 28.3018C49.1859 28.7787 48.6633 29.1113 48.0486 29.2998C47.6013 30.594 47.1261 31.8772 46.6228 33.1494C46.1222 33.9614 45.6232 34.7692 45.1258 35.5732C39.3031 42.9846 33.4813 42.9846 27.6599 35.5732C27.5886 37.4262 27.5648 39.2797 27.5886 41.1338C27.5412 41.1338 27.4935 41.1338 27.4461 41.1338C27.4699 39.1371 27.4461 37.141 27.3748 35.1455C26.19 33.3453 25.3107 31.3968 24.7371 29.2998C24.1621 29.1431 23.663 28.858 23.24 28.4443C21.8409 26.4119 21.3657 24.1781 21.8142 21.7432C21.997 21.0626 22.4011 20.5874 23.0261 20.3174C23.3244 20.3261 23.5383 20.4687 23.6677 20.7451C24.1802 22.2222 24.4415 23.7431 24.4519 25.3076C24.7846 25.3076 25.1173 25.3076 25.45 25.3076C25.4263 23.9761 25.45 22.6453 25.5213 21.3154C25.8806 20.4722 26.0469 19.5931 26.0203 18.6777C25.9346 17.798 25.9108 16.9187 25.949 16.04C26.7118 13.7451 28.304 12.5331 30.7254 12.4043C32.9356 14.2986 35.502 15.3917 38.4246 15.6836C40.9251 15.8118 43.3964 15.5979 45.8386 15.042C45.8769 15.8806 45.8292 16.7123 45.6961 17.5371C46.1305 18.3825 46.582 19.2141 47.0506 20.0322C47.1431 21.7928 47.1193 23.5512 46.9793 25.3076C47.2644 25.3076 47.5496 25.3076 47.8347 25.3076C48.0164 23.4802 48.5392 21.7693 49.4031 20.1748Z" fill="#F7CEA2"/>
</g>
<g id="Group_4">
<path id="Vector_4" fill-rule="evenodd" clip-rule="evenodd" d="M45.1261 35.5732C45.1261 37.4268 45.1261 39.2803 45.1261 41.1338C42.2999 43.236 39.4009 45.2321 36.4289 47.1221C33.4441 45.1832 30.4976 43.1871 27.589 41.1338C27.5652 39.2797 27.589 37.4262 27.6603 35.5732C33.4816 42.9846 39.3035 42.9846 45.1261 35.5732Z" fill="#F1B97C"/>
</g>
<g id="Group_5">
<path id="Vector_5" fill-rule="evenodd" clip-rule="evenodd" d="M27.4463 41.1338C27.4938 41.1338 27.5414 41.1338 27.5889 41.1338C30.4975 43.1871 33.444 45.1832 36.4287 47.1221C39.4008 45.2321 42.2998 43.236 45.126 41.1338C46.7779 41.96 48.3937 42.863 49.9736 43.8428C46.9429 46.8969 43.8298 49.8911 40.6348 52.8252C40.2019 52.3684 39.7504 51.9406 39.2803 51.542C38.4282 50.4607 37.4777 49.4626 36.4287 48.5479C35.3798 49.4626 34.4292 50.4607 33.5771 51.542C33.1307 51.9168 32.703 52.3208 32.2939 52.7539C29.661 50.5032 27.0945 48.1268 24.5947 45.625C24.087 45.1869 23.5642 44.7829 23.0264 44.4131C22.9648 44.2406 22.8697 44.098 22.7412 43.9854C24.2808 43.0011 25.8491 42.0506 27.4463 41.1338Z" fill="#FBFBFB"/>
</g>
<g id="Group_6">
<path id="Vector_6" fill-rule="evenodd" clip-rule="evenodd" d="M22.7413 43.9854C22.8698 44.098 22.9649 44.2406 23.0265 44.4131C26.462 50.3823 29.9314 56.3231 33.4347 62.2354C34.3575 63.9852 35.3555 65.6961 36.4288 67.3682C37.4644 65.7244 38.4624 64.0611 39.423 62.3779C43.0329 56.2997 46.6448 50.2163 50.2589 44.1279C53.6605 45.7101 57.0348 47.326 60.382 48.9756C60.382 53.0153 60.382 57.0551 60.382 61.0947C56.3228 65.1196 51.5227 67.9473 45.9816 69.5781C45.1854 69.813 44.3774 69.9792 43.5577 70.0771C42.3873 70.1989 41.2467 70.3891 40.1359 70.6475C39.4843 70.7816 38.8189 70.8291 38.1398 70.79C36.285 70.7843 34.4315 70.7367 32.5792 70.6475C32.0942 70.67 31.6188 70.6224 31.1534 70.5049C30.7194 70.2894 30.2441 70.1943 29.7277 70.2197C29.34 70.0183 28.9123 69.9232 28.4445 69.9346C27.0456 69.4528 25.6198 69.0251 24.1671 68.6514C23.9846 68.4473 23.7469 68.3522 23.4542 68.3662C23.1796 68.1106 22.847 67.968 22.4562 67.9385C21.646 67.4383 20.7906 67.0106 19.8898 66.6553C19.4861 66.5727 19.1535 66.3827 18.8917 66.085C18.3466 65.5979 17.7287 65.2178 17.0382 64.9443C16.7667 64.9104 16.5765 64.7678 16.4679 64.5166C16.14 64.1624 15.7597 63.8773 15.3273 63.6611C15.0558 63.6272 14.8656 63.4846 14.757 63.2334C14.509 62.8423 14.1763 62.5571 13.7589 62.3779C13.3841 61.9315 12.9801 61.5038 12.547 61.0947C12.4757 57.0553 12.452 53.0155 12.4757 48.9756C15.8528 47.2397 19.2747 45.5762 22.7413 43.9854Z" fill="#343843"/>
</g>
<g id="Group_7">
<path id="Vector_7" fill-rule="evenodd" clip-rule="evenodd" d="M49.9736 43.8428C50.1162 43.8903 50.2113 43.9854 50.2588 44.1279C46.6447 50.2163 43.0328 56.2997 39.4229 62.3779C38.7721 59.7512 38.1543 57.1135 37.5693 54.4648C38.0498 53.4317 38.6201 52.4575 39.2803 51.542C39.7504 51.9406 40.2019 52.3684 40.6348 52.8252C43.8298 49.8911 46.9428 46.8969 49.9736 43.8428Z" fill="#E5E5E6"/>
</g>
<g id="Group_8">
<path id="Vector_8" fill-rule="evenodd" clip-rule="evenodd" d="M23.0264 44.4131C23.5642 44.7829 24.087 45.1869 24.5947 45.625C27.0945 48.1268 29.661 50.5032 32.2939 52.7539C32.703 52.3208 33.1307 51.9168 33.5771 51.542C34.2373 52.4575 34.8076 53.4317 35.2881 54.4648C34.7248 57.0743 34.107 59.6645 33.4346 62.2354C29.9313 56.3231 26.4619 50.3823 23.0264 44.4131Z" fill="#E5E5E6"/>
</g>
<g id="Group_9">
<path id="Vector_9" fill-rule="evenodd" clip-rule="evenodd" d="M39.2803 51.542C38.6201 52.4575 38.0498 53.4317 37.5693 54.4648C38.1543 57.1135 38.7721 59.7512 39.4229 62.3779C38.4623 64.0611 37.4643 65.7244 36.4287 67.3682C35.3554 65.6961 34.3573 63.9852 33.4346 62.2354C34.107 59.6645 34.7248 57.0743 35.2881 54.4648C34.8076 53.4317 34.2373 52.4575 33.5771 51.542C34.4292 50.4607 35.3798 49.4626 36.4287 48.5479C37.4777 49.4626 38.4282 50.4607 39.2803 51.542Z" fill="#F0592F"/>
</g>
<g id="Group_10">
<path id="Vector_10" opacity="0.995" fill-rule="evenodd" clip-rule="evenodd" d="M12.1904 49.1182C12.3327 53.0858 12.3802 57.078 12.333 61.0947C9.89816 58.8812 7.94959 56.3148 6.4873 53.3955C8.0212 51.4815 9.92225 50.0558 12.1904 49.1182Z" fill="#E6E6E7"/>
</g>
<g id="Group_11">
<path id="Vector_11" fill-rule="evenodd" clip-rule="evenodd" d="M12.1904 49.1181C12.2391 48.9986 12.3342 48.951 12.4756 48.9755C12.4518 53.0154 12.4756 57.0553 12.5469 61.0946C12.98 61.5037 13.384 61.9314 13.7588 62.3778C13.1977 62.0548 12.7224 61.627 12.333 61.0946C12.3802 57.0779 12.3327 53.0857 12.1904 49.1181Z" fill="#B8B9BC"/>
</g>
<g id="Group_12">
<path id="Vector_12" fill-rule="evenodd" clip-rule="evenodd" d="M60.3818 48.9756C60.4769 48.9756 60.5244 49.0231 60.5244 49.1182C60.4772 53.0398 60.5247 56.9369 60.667 60.8096C60.6195 60.9521 60.5244 61.0472 60.3818 61.0947C60.3818 57.0551 60.3818 53.0153 60.3818 48.9756Z" fill="#B3B4B8"/>
</g>
<g id="Group_13">
<path id="Vector_13" fill-rule="evenodd" clip-rule="evenodd" d="M60.5245 49.1182C62.9259 49.952 64.8271 51.4252 66.2276 53.5381C64.7556 56.2466 62.9021 58.6705 60.6671 60.8096C60.5248 56.9369 60.4773 53.0398 60.5245 49.1182Z" fill="#E3E3E6"/>
</g>
<g id="Group_14">
<path id="Vector_14" opacity="0.925" fill-rule="evenodd" clip-rule="evenodd" d="M13.7588 62.3779C14.1762 62.5572 14.5089 62.8423 14.7568 63.2334C14.3395 63.0542 14.0068 62.769 13.7588 62.3779Z" fill="#C7C8CB"/>
</g>
<g id="Group_15">
<path id="Vector_15" opacity="0.208" fill-rule="evenodd" clip-rule="evenodd" d="M15.3271 63.6611C15.7596 63.8773 16.1398 64.1624 16.4678 64.5166C15.9843 64.3699 15.6042 64.0847 15.3271 63.6611Z" fill="#C9CACC"/>
</g>
<g id="Group_16">
<path id="Vector_16" opacity="0.443" fill-rule="evenodd" clip-rule="evenodd" d="M17.0381 64.9443C17.7286 65.2178 18.3465 65.5979 18.8916 66.085C18.1975 65.8166 17.5797 65.4365 17.0381 64.9443Z" fill="#D6D7D9"/>
</g>
<g id="Group_17">
<path id="Vector_17" opacity="0.024" fill-rule="evenodd" clip-rule="evenodd" d="M19.8896 66.6553C20.7905 67.0106 21.6459 67.4383 22.4561 67.9385C21.517 67.659 20.6616 67.2313 19.8896 66.6553Z" fill="#D0D0D3"/>
</g>
<g id="Group_18">
<path id="Vector_18" opacity="0.408" fill-rule="evenodd" clip-rule="evenodd" d="M22.4561 67.9385C22.8469 67.968 23.1795 68.1106 23.4541 68.3662C23.0633 68.3367 22.7307 68.1941 22.4561 67.9385Z" fill="#D4D5D7"/>
</g>
<g id="Group_19">
<path id="Vector_19" opacity="0.267" fill-rule="evenodd" clip-rule="evenodd" d="M23.4541 68.3661C23.7468 68.3521 23.9845 68.4472 24.167 68.6512C23.8743 68.6652 23.6366 68.5701 23.4541 68.3661Z" fill="#DADBDC"/>
</g>
<g id="Group_20">
<path id="Vector_20" fill-rule="evenodd" clip-rule="evenodd" d="M24.167 68.6514C25.6197 69.0251 27.0455 69.4528 28.4443 69.9346C26.9544 69.6752 25.5286 69.2475 24.167 68.6514Z" fill="#ABADB2"/>
</g>
<g id="Group_21">
<path id="Vector_21" opacity="0.886" fill-rule="evenodd" clip-rule="evenodd" d="M28.4443 69.9345C28.9121 69.9231 29.3399 70.0182 29.7275 70.2197C29.2597 70.2311 28.832 70.136 28.4443 69.9345Z" fill="#B8B9BC"/>
</g>
<g id="Group_22">
<path id="Vector_22" opacity="0.765" fill-rule="evenodd" clip-rule="evenodd" d="M43.5576 70.0771C42.4593 70.4109 41.3187 70.6011 40.1357 70.6475C41.2466 70.3891 42.3872 70.1989 43.5576 70.0771Z" fill="#A3A6AE"/>
</g>
<g id="Group_23">
<path id="Vector_23" opacity="0.749" fill-rule="evenodd" clip-rule="evenodd" d="M29.7275 70.2198C30.244 70.1945 30.7193 70.2896 31.1533 70.505C30.6432 70.498 30.168 70.403 29.7275 70.2198Z" fill="#C3C4C8"/>
</g>
<g id="Group_24">
<path id="Vector_24" opacity="0.333" fill-rule="evenodd" clip-rule="evenodd" d="M32.5791 70.6475C34.4313 70.7367 36.2848 70.7843 38.1396 70.79C36.2817 70.98 34.4282 70.9325 32.5791 70.6475Z" fill="#D7D8D9"/>
</g>
</g>
</svg>
