<svg width="14" height="14" viewBox="0 0 14 14" fill="none" xmlns="http://www.w3.org/2000/svg">
<path fill-rule="evenodd" clip-rule="evenodd" d="M10.1698 0.301701C10.4627 0.00880794 10.9376 0.00880806 11.2305 0.301701L13.6972 2.76837C13.9901 3.06126 13.9901 3.53613 13.6972 3.82903L3.83716 13.689C3.69701 13.8292 3.50707 13.9082 3.30885 13.9087L0.835517 13.9154C0.635905 13.9159 0.444313 13.8368 0.303166 13.6957C0.162019 13.5545 0.0829611 13.363 0.0834988 13.1633L0.0901618 10.69C0.0906958 10.4918 0.169672 10.3019 0.309829 10.1617L10.1698 0.301701ZM1.58932 11.0035L1.58552 12.4133L2.99534 12.4095L12.1062 3.2987L10.7002 1.89269L1.58932 11.0035Z" fill="#5D74F1"/>
<path fill-rule="evenodd" clip-rule="evenodd" d="M8.70331 2.55561C8.99621 2.26271 9.47108 2.26271 9.76397 2.55561L11.444 4.2356C11.7369 4.52849 11.7369 5.00337 11.444 5.29626C11.1511 5.58915 10.6762 5.58915 10.3833 5.29626L8.70331 3.61627C8.41042 3.32337 8.41042 2.8485 8.70331 2.55561Z" fill="#5D74F1"/>
</svg>
