<svg width="37" height="37" viewBox="0 0 37 37" fill="none" xmlns="http://www.w3.org/2000/svg">
<g id="facebook">
<path id="bg" d="M0.692383 18.0513C0.692383 28.0207 8.77422 36.1026 18.7437 36.1026C28.7131 36.1026 36.7949 28.0207 36.7949 18.0513C36.7949 8.08183 28.7131 0 18.7437 0C8.77422 0 0.692383 8.08183 0.692383 18.0513Z" fill="#1877F2"/>
<path id="facebook_2" d="M27.7693 18.0513C27.7693 13.0872 23.7078 9.02563 18.7437 9.02563C13.7796 9.02563 9.71802 13.0872 9.71802 18.0513C9.71802 22.5641 12.9898 26.2872 17.277 26.9641V20.6461H15.0206V18.0513H17.277V16.0205C17.277 13.7641 18.6308 12.5231 20.6616 12.5231C21.677 12.5231 22.6924 12.7487 22.6924 12.7487V15.0051H21.5642C20.436 15.0051 20.0975 15.682 20.0975 16.359V18.0513H22.5796L22.1283 20.6461H19.9847V27.0769C24.4975 26.4 27.7693 22.5641 27.7693 18.0513Z" fill="white"/>
</g>
</svg>
