<svg width="25" height="24" viewBox="0 0 25 24" fill="none" xmlns="http://www.w3.org/2000/svg">
<path d="M19.34 7.35001H15.51C14.79 7.35001 14.12 6.97001 13.75 6.35001L13.1 5.26001C12.73 4.64001 12.06 4.26001 11.34 4.26001H5.31C4.17 4.26001 3.25 5.18001 3.25 6.32001V9.39999L3.25 9.72984C3.25 9.84413 3.25 9.63 3.25 9.75V17.3C3.25 18.63 4.33 19.71 5.66 19.71H19.34C20.67 19.71 21.75 18.63 21.75 17.3V9.75C21.75 8.43 20.67 7.35001 19.34 7.35001Z" stroke="#5D74F1" stroke-width="1.5" stroke-linecap="round" stroke-linejoin="round"/>
<path d="M19.34 7.34998H3.25V17.32C3.25 18.65 4.33 19.73 5.66 19.73H19.34C20.67 19.73 21.75 18.65 21.75 17.32V9.76996C21.75 8.42996 20.67 7.34998 19.34 7.34998Z" stroke="#5D74F1" stroke-width="1.5" stroke-linecap="round" stroke-linejoin="round"/>
</svg>
