<svg width="37" height="37" viewBox="0 0 37 37" fill="none" xmlns="http://www.w3.org/2000/svg">
<path d="M36.1026 18.0513C36.1026 8.08183 28.0207 0 18.0513 0C8.08183 0 0 8.08183 0 18.0513C0 28.0207 8.08183 36.1026 18.0513 36.1026C28.0207 36.1026 36.1026 28.0207 36.1026 18.0513Z" fill="white"/>
<path fill-rule="evenodd" clip-rule="evenodd" d="M26.8851 18.2563C26.8851 17.6163 26.8277 17.0009 26.721 16.4102H18.2205V19.9014H23.0779C22.8687 21.0297 22.2328 21.9856 21.2769 22.6256V24.8902H24.1938C25.9005 23.3189 26.8851 21.005 26.8851 18.2563Z" fill="#4285F4"/>
<path fill-rule="evenodd" clip-rule="evenodd" d="M18.22 27.0769C20.6569 27.0769 22.7 26.2687 24.1933 24.8902L21.2764 22.6256C20.4682 23.1671 19.4343 23.4871 18.22 23.4871C15.8692 23.4871 13.8794 21.8995 13.1697 19.7661H10.1543V22.1046C11.6394 25.0543 14.6917 27.0769 18.22 27.0769Z" fill="#34A853"/>
<path fill-rule="evenodd" clip-rule="evenodd" d="M13.1702 19.766C12.9897 19.2245 12.8871 18.646 12.8871 18.0511C12.8871 17.4563 12.9897 16.8778 13.1702 16.3363V13.9978H10.1548C9.54354 15.2163 9.19482 16.5947 9.19482 18.0511C9.19482 19.5076 9.54354 20.886 10.1548 22.1045L13.1702 19.766Z" fill="#FBBC05"/>
<path fill-rule="evenodd" clip-rule="evenodd" d="M18.22 12.6154C19.5451 12.6154 20.7348 13.0708 21.6702 13.9651L24.2589 11.3764C22.6959 9.92 20.6528 9.02563 18.22 9.02563C14.6917 9.02563 11.6394 11.0482 10.1543 13.998L13.1697 16.3364C13.8794 14.2031 15.8692 12.6154 18.22 12.6154Z" fill="#EA4335"/>
</svg>
