<svg width="25" height="24" viewBox="0 0 25 24" fill="none" xmlns="http://www.w3.org/2000/svg">
<g id="vuesax/outline/shield-tick">
<g id="shield-tick">
<path id="Vector" d="M12.4999 22.7599C11.4099 22.7599 10.3299 22.4399 9.4799 21.8099L5.1799 18.5999C4.0399 17.7499 3.1499 15.9699 3.1499 14.5599V7.11994C3.1499 5.57994 4.2799 3.93994 5.7299 3.39994L10.7199 1.52994C11.7099 1.15994 13.2699 1.15994 14.2599 1.52994L19.2499 3.39994C20.6999 3.93994 21.8299 5.57994 21.8299 7.11994V14.5499C21.8299 15.9699 20.9399 17.7399 19.7999 18.5899L15.4999 21.7999C14.6699 22.4399 13.5899 22.7599 12.4999 22.7599ZM11.2499 2.93994L6.2599 4.80994C5.4099 5.12994 4.6599 6.20994 4.6599 7.12994V14.5599C4.6599 15.5099 5.3299 16.8399 6.0799 17.3999L10.3799 20.6099C11.5299 21.4699 13.4699 21.4699 14.6299 20.6099L18.9299 17.3999C19.6899 16.8299 20.3499 15.5099 20.3499 14.5599V7.11994C20.3499 6.20994 19.5999 5.12994 18.7499 4.79994L13.7599 2.92994C13.0799 2.68994 11.9199 2.68994 11.2499 2.93994Z" fill="#7E7E7E"/>
<path id="Vector_2" d="M11.1602 14.2301C10.9702 14.2301 10.7802 14.1601 10.6302 14.0101L9.02023 12.4001C8.73023 12.1101 8.73023 11.6301 9.02023 11.3401C9.31023 11.0501 9.79023 11.0501 10.0802 11.3401L11.1602 12.4201L14.9302 8.65012C15.2202 8.36012 15.7002 8.36012 15.9902 8.65012C16.2802 8.94012 16.2802 9.42012 15.9902 9.71012L11.6902 14.0101C11.5402 14.1601 11.3502 14.2301 11.1602 14.2301Z" fill="#7E7E7E"/>
</g>
</g>
</svg>
