<svg width="25" height="24" viewBox="0 0 25 24" fill="none" xmlns="http://www.w3.org/2000/svg">
<g id="vuesax/outline/shield-tick">
<g id="shield-tick">
<path id="Vector" d="M12.5004 22.76C11.4104 22.76 10.3304 22.44 9.48039 21.81L5.18039 18.6C4.04039 17.75 3.15039 15.97 3.15039 14.56V7.12C3.15039 5.58 4.28039 3.94 5.73039 3.4L10.7204 1.53C11.7104 1.16 13.2704 1.16 14.2604 1.53L19.2504 3.4C20.7004 3.94 21.8304 5.58 21.8304 7.12V14.55C21.8304 15.97 20.9404 17.74 19.8004 18.59L15.5004 21.8C14.6704 22.44 13.5904 22.76 12.5004 22.76ZM11.2504 2.94L6.26039 4.81C5.41039 5.13 4.66039 6.21 4.66039 7.13V14.56C4.66039 15.51 5.33039 16.84 6.08039 17.4L10.3804 20.61C11.5304 21.47 13.4704 21.47 14.6304 20.61L18.9304 17.4C19.6904 16.83 20.3504 15.51 20.3504 14.56V7.12C20.3504 6.21 19.6004 5.13 18.7504 4.8L13.7604 2.93C13.0804 2.69 11.9204 2.69 11.2504 2.94Z" fill="white"/>
<path id="Vector_2" d="M11.1602 14.23C10.9702 14.23 10.7802 14.16 10.6302 14.01L9.02023 12.4C8.73023 12.11 8.73023 11.63 9.02023 11.34C9.31023 11.05 9.79023 11.05 10.0802 11.34L11.1602 12.42L14.9302 8.65C15.2202 8.36 15.7002 8.36 15.9902 8.65C16.2802 8.94 16.2802 9.42 15.9902 9.71L11.6902 14.01C11.5402 14.16 11.3502 14.23 11.1602 14.23Z" fill="white"/>
</g>
</g>
</svg>
