<svg width="25" height="24" viewBox="0 0 25 24" fill="none" xmlns="http://www.w3.org/2000/svg">
<g id="vuesax/outline/briefcase">
<g id="briefcase">
<path id="Vector" d="M16.5002 22.7498H8.50023C3.88023 22.7498 3.02023 20.5998 2.80023 18.5098L2.05023 10.4998C1.94023 9.44977 1.91023 7.89977 2.95023 6.73977C3.85023 5.73977 5.34023 5.25977 7.50023 5.25977H17.5002C19.6702 5.25977 21.1602 5.74977 22.0502 6.73977C23.0902 7.89977 23.0602 9.44977 22.9502 10.5098L22.2002 18.4998C21.9802 20.5998 21.1202 22.7498 16.5002 22.7498ZM7.50023 6.74977C5.81023 6.74977 4.65023 7.07977 4.06023 7.73977C3.57023 8.27977 3.41023 9.10977 3.54023 10.3498L4.29023 18.3598C4.46023 19.9398 4.89023 21.2498 8.50023 21.2498H16.5002C20.1002 21.2498 20.5402 19.9398 20.7102 18.3498L21.4602 10.3598C21.5902 9.10977 21.4302 8.27977 20.9402 7.73977C20.3502 7.07977 19.1902 6.74977 17.5002 6.74977H7.50023Z" fill="#7E7E7E"/>
<path id="Vector_2" d="M16.5 6.75C16.09 6.75 15.75 6.41 15.75 6V5.2C15.75 3.42 15.75 2.75 13.3 2.75H11.7C9.25 2.75 9.25 3.42 9.25 5.2V6C9.25 6.41 8.91 6.75 8.5 6.75C8.09 6.75 7.75 6.41 7.75 6V5.2C7.75 3.44 7.75 1.25 11.7 1.25H13.3C17.25 1.25 17.25 3.44 17.25 5.2V6C17.25 6.41 16.91 6.75 16.5 6.75Z" fill="#7E7E7E"/>
<path id="Vector_3" d="M12.5 16.75C9.75 16.75 9.75 15.05 9.75 14.03V13C9.75 11.59 10.09 11.25 11.5 11.25H13.5C14.91 11.25 15.25 11.59 15.25 13V14C15.25 15.04 15.25 16.75 12.5 16.75ZM11.25 12.75C11.25 12.83 11.25 12.92 11.25 13V14.03C11.25 15.06 11.25 15.25 12.5 15.25C13.75 15.25 13.75 15.09 13.75 14.02V13C13.75 12.92 13.75 12.83 13.75 12.75C13.67 12.75 13.58 12.75 13.5 12.75H11.5C11.42 12.75 11.33 12.75 11.25 12.75Z" fill="#7E7E7E"/>
<path id="Vector_4" d="M14.5 14.7702C14.13 14.7702 13.8 14.4902 13.76 14.1102C13.71 13.7002 14 13.3202 14.41 13.2702C17.05 12.9402 19.58 11.9402 21.71 10.3902C22.04 10.1402 22.51 10.2202 22.76 10.5602C23 10.8902 22.93 11.3602 22.59 11.6102C20.25 13.3102 17.49 14.4002 14.59 14.7702C14.56 14.7702 14.53 14.7702 14.5 14.7702Z" fill="#7E7E7E"/>
<path id="Vector_5" d="M10.5002 14.7799C10.4702 14.7799 10.4402 14.7799 10.4102 14.7799C7.67023 14.4699 5.00023 13.4699 2.69023 11.8899C2.35023 11.6599 2.26023 11.1899 2.49023 10.8499C2.72023 10.5099 3.19023 10.4199 3.53023 10.6499C5.64023 12.0899 8.07023 12.9999 10.5702 13.2899C10.9802 13.3399 11.2802 13.7099 11.2302 14.1199C11.2002 14.4999 10.8802 14.7799 10.5002 14.7799Z" fill="#7E7E7E"/>
</g>
</g>
</svg>
