<svg width="25" height="24" viewBox="0 0 25 24" fill="none" xmlns="http://www.w3.org/2000/svg">
<g id="vuesax/outline/briefcase">
<g id="briefcase">
<path id="Vector" d="M16.5002 22.75H8.50023C3.88023 22.75 3.02023 20.6 2.80023 18.51L2.05023 10.5C1.94023 9.45 1.91023 7.9 2.95023 6.74C3.85023 5.74 5.34023 5.26 7.50023 5.26H17.5002C19.6702 5.26 21.1602 5.75 22.0502 6.74C23.0902 7.9 23.0602 9.45 22.9502 10.51L22.2002 18.5C21.9802 20.6 21.1202 22.75 16.5002 22.75ZM7.50023 6.75C5.81023 6.75 4.65023 7.08 4.06023 7.74C3.57023 8.28 3.41023 9.11 3.54023 10.35L4.29023 18.36C4.46023 19.94 4.89023 21.25 8.50023 21.25H16.5002C20.1002 21.25 20.5402 19.94 20.7102 18.35L21.4602 10.36C21.5902 9.11 21.4302 8.28 20.9402 7.74C20.3502 7.08 19.1902 6.75 17.5002 6.75H7.50023Z" fill="white"/>
<path id="Vector_2" d="M16.5 6.75C16.09 6.75 15.75 6.41 15.75 6V5.2C15.75 3.42 15.75 2.75 13.3 2.75H11.7C9.25 2.75 9.25 3.42 9.25 5.2V6C9.25 6.41 8.91 6.75 8.5 6.75C8.09 6.75 7.75 6.41 7.75 6V5.2C7.75 3.44 7.75 1.25 11.7 1.25H13.3C17.25 1.25 17.25 3.44 17.25 5.2V6C17.25 6.41 16.91 6.75 16.5 6.75Z" fill="white"/>
<path id="Vector_3" d="M12.5 16.75C9.75 16.75 9.75 15.05 9.75 14.03V13C9.75 11.59 10.09 11.25 11.5 11.25H13.5C14.91 11.25 15.25 11.59 15.25 13V14C15.25 15.04 15.25 16.75 12.5 16.75ZM11.25 12.75C11.25 12.83 11.25 12.92 11.25 13V14.03C11.25 15.06 11.25 15.25 12.5 15.25C13.75 15.25 13.75 15.09 13.75 14.02V13C13.75 12.92 13.75 12.83 13.75 12.75C13.67 12.75 13.58 12.75 13.5 12.75H11.5C11.42 12.75 11.33 12.75 11.25 12.75Z" fill="white"/>
<path id="Vector_4" d="M14.4995 14.77C14.1295 14.77 13.7995 14.49 13.7595 14.11C13.7095 13.7 13.9995 13.32 14.4095 13.27C17.0495 12.94 19.5795 11.94 21.7095 10.39C22.0395 10.14 22.5095 10.22 22.7595 10.56C22.9995 10.89 22.9295 11.36 22.5895 11.61C20.2495 13.31 17.4895 14.4 14.5895 14.77C14.5595 14.77 14.5295 14.77 14.4995 14.77Z" fill="white"/>
<path id="Vector_5" d="M10.5007 14.78C10.4707 14.78 10.4407 14.78 10.4107 14.78C7.67072 14.47 5.00072 13.47 2.69072 11.89C2.35072 11.66 2.26072 11.19 2.49072 10.85C2.72072 10.51 3.19072 10.42 3.53072 10.65C5.64072 12.09 8.07072 13 10.5707 13.29C10.9807 13.34 11.2807 13.71 11.2307 14.12C11.2007 14.5 10.8807 14.78 10.5007 14.78Z" fill="white"/>
</g>
</g>
</svg>
