<svg width="24" height="24" viewBox="0 0 24 24" fill="none" xmlns="http://www.w3.org/2000/svg">
<path d="M17.9729 6.51686L17.1312 5.23706C16.8869 4.82247 16.4253 4.56109 15.8642 4.54306C15.3575 4.54306 14.8778 4.78641 14.6154 5.16494L14.2805 5.64265L12.733 2.72252C12.2534 1.91137 10.9774 1.72207 10.2534 2.47013L6.22624 6.9675C4.78732 8.52671 4 10.5006 4 12.5284C4 12.8799 4.05429 13.3035 4.19004 13.9254C4.21719 14.0335 4.24434 14.1507 4.28054 14.2769L4.32578 14.4842C5.15836 17.5575 8.1267 19.7747 11.7557 20H11.81C15.5294 20 18.8416 17.6927 19.6652 14.5202C19.7104 14.394 19.7376 14.2679 19.7738 14.1417C19.7919 14.0696 19.81 13.9975 19.8462 13.8623C19.9548 13.3215 20 12.916 20 12.5915V12.4744C20 10.3834 18.9593 8.022 17.9729 6.51686ZM14.4163 16.3228C14.3982 16.3859 14.3801 16.449 14.362 16.5211L14.3439 16.6022C14.1629 17.2781 13.638 17.846 12.905 18.1614C12.5611 18.3146 12.1991 18.3957 11.819 18.4228H11.7828C11.5023 18.4228 11.1855 18.3236 10.8145 18.1614C10.0905 17.846 9.5656 17.2782 9.35745 16.5211C9.33935 16.449 9.33032 16.3768 9.32127 16.3678C9.28507 16.1786 9.25792 16.0434 9.25792 15.9533C9.25792 15.2593 9.53845 14.5833 10.0362 14.0426L11.8643 12.0057L13.6923 14.0516C14.19 14.5833 14.4615 15.2593 14.4615 15.9533C14.4615 16.0434 14.4435 16.1876 14.4163 16.3228Z" fill="#C0C0C0"/>
</svg>
