<svg width="24" height="24" viewBox="0 0 24 24" fill="none" xmlns="http://www.w3.org/2000/svg">
<path d="M14 11.9824C14 13.0897 13.1073 13.9824 12 13.9824C10.8927 13.9824 10 13.0897 10 11.9824C10 10.8751 10.8927 9.98242 12 9.98242C13.1073 9.98242 14 10.8751 14 11.9824Z" fill="#C0C0C0"/>
<path d="M19.0169 9.27501C17.2344 7.18398 14.6767 5.98242 11.999 5.98242C9.32134 5.98242 6.76358 7.18398 4.98914 9.27501C3.67029 10.8199 3.67029 13.145 4.98914 14.6898C6.76358 16.7809 9.32134 17.9824 11.999 17.9824C14.6767 17.9824 17.2344 16.7809 19.0169 14.6898C20.3277 13.145 20.3277 10.8199 19.0169 9.27501ZM11.999 14.9707C10.3125 14.9707 8.93768 13.6287 8.93768 11.9824C8.93768 10.3361 10.3125 8.99412 11.999 8.99412C13.6855 8.99412 15.0603 10.3361 15.0603 11.9824C15.0603 13.6287 13.6855 14.9707 11.999 14.9707Z" fill="#C0C0C0"/>
</svg>
