<svg width="24" height="24" viewBox="0 0 24 24" fill="none" xmlns="http://www.w3.org/2000/svg">
<path d="M12 5C8.143 5 5 8.143 5 12C5 15.857 8.143 19 12 19C15.857 19 19 15.857 19 12C19 8.143 15.857 5 12 5ZM15.192 10.831L12.315 12.994C12.301 13.001 12.28 13.008 12.266 13.022C12.245 13.029 12.231 13.036 12.21 13.043C12.147 13.078 12.07 13.099 12 13.099C11.93 13.099 11.86 13.078 11.797 13.05C11.783 13.043 11.769 13.036 11.748 13.029C11.734 13.022 11.72 13.015 11.706 13.008L9.60599 11.566C9.36799 11.405 9.30501 11.076 9.47301 10.838C9.63401 10.6 9.96299 10.537 10.201 10.698L11.986 11.923L14.562 9.991C14.793 9.816 15.122 9.865 15.297 10.096C15.472 10.327 15.423 10.656 15.192 10.831Z" fill="#C0C0C0"/>
</svg>
