<svg width="20" height="20" viewBox="0 0 20 20" fill="none" xmlns="http://www.w3.org/2000/svg">
<g clip-path="url(#clip0_85_3261)">
<path fill-rule="evenodd" clip-rule="evenodd" d="M17.7165 2.08572C17.2664 1.68526 16.6722 1.4753 16.0639 1.50179C16.0526 1.50228 16.0412 1.50253 16.0298 1.50253H9.76744C9.3436 1.50253 9 1.16685 9 0.752756C9 0.338666 9.3436 0.0029794 9.76744 0.0029794H16.0136C17.021 -0.0362653 18.0041 0.313459 18.7499 0.976944C19.5002 1.64439 19.9493 2.575 19.9991 3.56516C19.9997 3.5774 20 3.58965 20 3.60191V16.3981C20 16.4103 19.9997 16.4226 19.9991 16.4348C19.9493 17.425 19.5002 18.3556 18.7499 19.0231C18.0041 19.6865 17.021 20.0363 16.0136 19.997H9.76744C9.3436 19.997 9 19.6613 9 19.2472C9 18.8332 9.3436 18.4975 9.76744 18.4975H16.0298C16.0412 18.4975 16.0526 18.4977 16.0639 18.4982C16.6722 18.5247 17.2664 18.3147 17.7165 17.9143C18.1624 17.5176 18.431 16.9661 18.4651 16.3784V3.62161C18.431 3.03388 18.1624 2.48235 17.7165 2.08572Z" fill="#949494"/>
<path fill-rule="evenodd" clip-rule="evenodd" d="M0.0305176 10.0004C0.0305176 9.5644 0.372408 9.21094 0.794152 9.21094H13.2363C13.6581 9.21094 13.9999 9.5644 13.9999 10.0004C13.9999 10.4364 13.6581 10.7899 13.2363 10.7899H0.794152C0.372408 10.7899 0.0305176 10.4364 0.0305176 10.0004Z" fill="#949494"/>
<path fill-rule="evenodd" clip-rule="evenodd" d="M0.223663 9.44217C0.521881 9.13386 1.00539 9.13386 1.30361 9.44217L5.37632 13.6527C5.67454 13.961 5.67454 14.4609 5.37632 14.7692C5.07811 15.0775 4.5946 15.0775 4.29638 14.7692L0.223663 10.5587C-0.0745545 10.2503 -0.0745545 9.75048 0.223663 9.44217Z" fill="#949494"/>
<path fill-rule="evenodd" clip-rule="evenodd" d="M5.37632 5.23123C5.67454 5.53954 5.67454 6.03941 5.37632 6.34772L1.30361 10.5582C1.00539 10.8666 0.521881 10.8666 0.223663 10.5582C-0.0745545 10.2499 -0.0745545 9.75007 0.223663 9.44176L4.29638 5.23123C4.5946 4.92292 5.07811 4.92292 5.37632 5.23123Z" fill="#949494"/>
</g>
<defs>
<clipPath id="clip0_85_3261">
<rect width="20" height="20" fill="white"/>
</clipPath>
</defs>
</svg>
