<svg width="37" height="37" viewBox="0 0 37 37" fill="none" xmlns="http://www.w3.org/2000/svg">
<path d="M0.102539 18.0513C0.102539 8.08183 8.18437 0 18.1538 0C28.1233 0 36.2051 8.08183 36.2051 18.0513C36.2051 28.0207 28.1233 36.1026 18.1538 36.1026C8.18437 36.1026 0.102539 28.0207 0.102539 18.0513Z" fill="#FF8800"/>
<path fill-rule="evenodd" clip-rule="evenodd" d="M23.6553 12.9408C23.6553 15.9522 21.2004 18.4072 18.1888 18.4072C15.1447 18.4072 12.6897 15.9522 12.6897 12.9408C12.6897 9.92935 15.1447 7.47437 18.1888 7.47437C21.2004 7.47437 23.6553 9.92935 23.6553 12.9408ZM20.4475 12.9408C20.4475 11.697 19.4327 10.6822 18.1888 10.6822C16.9123 10.6822 15.8975 11.697 15.9303 12.9408C15.9303 14.1847 16.9451 15.1993 18.1888 15.1993C19.4327 15.1993 20.4475 14.1847 20.4475 12.9408Z" fill="white"/>
<path d="M23.5571 21.5824C22.5751 22.2043 21.4949 22.6298 20.382 22.8917L23.4917 25.9031C24.1135 26.5252 24.1135 27.5398 23.4917 28.1618C22.8698 28.7837 21.855 28.7837 21.2332 28.1618L18.2216 25.1503L15.2102 28.1618C14.8829 28.4564 14.4901 28.62 14.0645 28.62C13.639 28.62 13.2462 28.4891 12.9189 28.1618C12.2969 27.5398 12.2969 26.5252 12.9189 25.9031L15.9631 22.8589C14.8501 22.5971 13.7699 22.1716 12.7879 21.5496C12.0351 21.0914 11.8059 20.1094 12.2315 19.3565C12.7225 18.6037 13.7045 18.4074 14.4573 18.8656C16.6832 20.2731 19.5964 20.2731 21.8222 18.8656C22.5751 18.3746 23.5899 18.6037 24.0481 19.3565C24.5391 20.1094 24.31 21.1241 23.5571 21.5824Z" fill="white"/>
</svg>
