<svg width="24" height="24" viewBox="0 0 24 24" fill="none" xmlns="http://www.w3.org/2000/svg">
<g clip-path="url(#clip0_1606_5879)">
<path opacity="0.978" fill-rule="evenodd" clip-rule="evenodd" d="M10.9922 0.726537C15.1863 0.499601 18.4754 2.09335 20.8594 5.50779C21.8724 7.1096 22.4349 8.85963 22.5469 10.7578C22.5781 13.0078 22.5781 15.2578 22.5469 17.5078C22.2867 19.0256 21.3883 19.8538 19.8516 19.9922C18.3773 19.8693 17.4789 19.088 17.1563 17.6484C17.125 15.9609 17.125 14.2734 17.1563 12.5859C17.4471 11.1234 18.3377 10.3421 19.8281 10.2422C20.2121 10.2423 20.5793 10.3205 20.9297 10.4765C20.6073 7.37022 19.1073 5.01865 16.4297 3.42185C13.4963 1.87503 10.5588 1.8594 7.61719 3.37497C4.89891 4.9759 3.36766 7.34308 3.02344 10.4765C4.33715 10.0022 5.43872 10.299 6.32813 11.3672C6.57666 11.7378 6.73294 12.144 6.79688 12.5859C6.82814 14.2734 6.82814 15.9609 6.79688 17.6484C6.60586 18.7376 5.9887 19.4563 4.94531 19.8047C5.26378 20.9744 6.02939 21.6072 7.24219 21.7031C8.91408 21.7187 10.5859 21.7344 12.2578 21.75C12.5853 21.8815 12.7416 22.1237 12.7266 22.4765C12.7416 22.8294 12.5853 23.0715 12.2578 23.2031C10.3984 23.2344 8.53908 23.2344 6.67969 23.2031C4.83413 22.8185 3.74036 21.7013 3.39844 19.8515C2.242 19.4933 1.57794 18.7121 1.40625 17.5078C1.375 15.2578 1.375 13.0078 1.40625 10.7578C1.70334 6.96565 3.46116 4.08282 6.67969 2.10935C8.02786 1.34999 9.46533 0.889057 10.9922 0.726537Z" fill="white"/>
</g>
<defs>
<clipPath id="clip0_1606_5879">
<rect width="24" height="24" fill="white"/>
</clipPath>
</defs>
</svg>
