<svg width="7" height="6" viewBox="0 0 7 6" fill="none" xmlns="http://www.w3.org/2000/svg">
<path d="M6.5366 1.342L6.3866 1.492L2.3366 5.542C2.2616 5.617 2.1866 5.692 2.0366 5.542L0.0866025 3.592C-0.0633975 3.442 0.0116025 3.367 0.0866025 3.292C0.236603 3.142 0.461602 2.842 0.611602 2.842C0.836602 2.842 0.986602 3.142 1.1366 3.292L1.9616 4.117C2.1116 4.267 2.1866 4.267 2.3366 4.117L5.5616 0.892004C5.7116 0.742004 5.8616 0.667004 6.0116 0.892004C6.0866 1.042 6.2366 1.117 6.3116 1.267C6.4616 1.267 6.5366 1.342 6.5366 1.342Z" fill="white"/>
</svg>
