<svg width="24" height="25" viewBox="0 0 24 25" fill="none" xmlns="http://www.w3.org/2000/svg">
<g clip-path="url(#clip0_1606_5926)">
<path opacity="0.99" fill-rule="evenodd" clip-rule="evenodd" d="M1.97852 1.49237C5.63086 1.49237 9.2832 1.49237 12.9355 1.49237C12.9355 3.64081 12.9355 5.78925 12.9355 7.93768C15.1126 7.93768 17.2897 7.93768 19.4668 7.93768C19.4668 9.26971 19.4668 10.6017 19.4668 11.9338C16.8781 11.7923 14.8514 12.7806 13.3867 14.8986C12.1043 17.0944 12.0613 19.3144 13.2578 21.5588C13.5188 22.0017 13.8267 22.4099 14.1816 22.7834C10.114 22.8049 6.04625 22.812 1.97852 22.8049C1.97852 15.7007 1.97852 8.59652 1.97852 1.49237ZM5.20117 7.98065C6.90561 7.98065 8.61001 7.98065 10.3145 7.98065C10.3145 8.39603 10.3145 8.81137 10.3145 9.22675C8.61001 9.22675 6.90561 9.22675 5.20117 9.22675C5.20117 8.81137 5.20117 8.39603 5.20117 7.98065ZM5.20117 10.5588C8.43814 10.5588 11.6751 10.5588 14.9121 10.5588C14.9121 10.9742 14.9121 11.3895 14.9121 11.8049C11.6751 11.8049 8.43814 11.8049 5.20117 11.8049C5.20117 11.3895 5.20117 10.9742 5.20117 10.5588ZM5.20117 13.1369C7.3353 13.1369 9.46939 13.1369 11.6035 13.1369C11.6035 13.5523 11.6035 13.9676 11.6035 14.383C9.46939 14.383 7.3353 14.383 5.20117 14.383C5.20117 13.9676 5.20117 13.5523 5.20117 13.1369ZM5.20117 15.715C6.90561 15.715 8.61001 15.715 10.3145 15.715C10.3145 16.1304 10.3145 16.5457 10.3145 16.9611C8.61001 16.9611 6.90561 16.9611 5.20117 16.9611C5.20117 16.5457 5.20117 16.1304 5.20117 15.715Z" fill="white"/>
<path opacity="0.975" fill-rule="evenodd" clip-rule="evenodd" d="M14.1816 1.83612C15.8058 3.43879 17.4243 5.05012 19.0371 6.6701C17.4187 6.69159 15.8002 6.69877 14.1816 6.69159C14.1816 5.0731 14.1816 3.45461 14.1816 1.83612Z" fill="white"/>
<path opacity="0.985" fill-rule="evenodd" clip-rule="evenodd" d="M23.9787 17.6486C23.9787 18.107 23.9787 18.5653 23.9787 19.0236C23.4721 21.5211 21.9682 23.0107 19.4669 23.4924C19.0373 23.4924 18.6076 23.4924 18.1779 23.4924C15.8054 23.0608 14.3229 21.6715 13.7306 19.3244C13.3945 16.7093 14.3899 14.7972 16.7169 13.5881C18.6846 12.8236 20.5036 13.0814 22.174 14.3615C23.1751 15.2395 23.7767 16.3352 23.9787 17.6486ZM20.3263 16.7033C20.6185 17.0028 20.905 17.3107 21.1857 17.6271C20.2061 18.4778 19.2393 19.3443 18.2853 20.2268C17.6987 19.6044 17.1043 18.9884 16.5021 18.3791C16.7742 18.0783 17.0607 17.7918 17.3615 17.5197C17.6748 17.8545 17.997 18.184 18.3283 18.508C19.0155 17.9281 19.6815 17.3265 20.3263 16.7033Z" fill="white"/>
</g>
<defs>
<clipPath id="clip0_1606_5926">
<rect width="22" height="22" fill="white" transform="translate(2 1.51385)"/>
</clipPath>
</defs>
</svg>
