<svg width="24" height="24" viewBox="0 0 24 24" fill="none" xmlns="http://www.w3.org/2000/svg">
<g clip-path="url(#clip0_1548_21009)">
<path opacity="0.966" fill-rule="evenodd" clip-rule="evenodd" d="M23.0391 -0.0234375C23.211 -0.0234375 23.3828 -0.0234375 23.5547 -0.0234375C23.7299 0.104744 23.8705 0.260994 23.9766 0.445312C23.9766 0.632812 23.9766 0.820312 23.9766 1.00781C22.5331 8.45184 21.1035 15.905 19.6875 23.3672C19.6156 23.6495 19.4515 23.8526 19.1953 23.9766C19.0234 23.9766 18.8516 23.9766 18.6797 23.9766C15.96 22.2844 13.2335 20.5969 10.5 18.9141C9.31008 20.4633 8.1382 22.0258 6.98438 23.6016C6.85336 23.7568 6.70495 23.8817 6.53906 23.9766C6.36717 23.9766 6.19533 23.9766 6.02344 23.9766C5.86856 23.8606 5.73572 23.72 5.625 23.5547C5.60939 21.0078 5.59373 18.4609 5.57812 15.9141C3.75157 14.7827 1.93126 13.6421 0.117188 12.4922C0.0611128 12.4151 0.0142376 12.337 -0.0234375 12.2578C-0.0234375 12.0859 -0.0234375 11.9141 -0.0234375 11.7422C0.0763172 11.6189 0.185693 11.5017 0.304688 11.3906C7.88714 7.58381 15.4652 3.7791 23.0391 -0.0234375ZM21.9141 3.67969C20.7918 9.81497 19.6278 15.9556 18.4219 22.1016C16.1915 20.7011 13.9493 19.3183 11.6953 17.9531C11.5869 17.8915 11.4932 17.8134 11.4141 17.7188C14.9055 13.0321 18.4055 8.35238 21.9141 3.67969ZM18.3984 3.96094C14.3762 7.50633 10.345 11.0454 6.30469 14.5781C4.92277 13.7771 3.54778 12.949 2.17969 12.0938C7.58114 9.36956 12.9874 6.65864 18.3984 3.96094ZM18.3047 6.02344C14.5705 11.053 10.8127 16.0687 7.03125 21.0703C6.99998 19.3359 6.99998 17.6016 7.03125 15.8672C10.783 12.5761 14.5409 9.29489 18.3047 6.02344Z" fill="white"/>
</g>
<defs>
<clipPath id="clip0_1548_21009">
<rect width="24" height="24" fill="white"/>
</clipPath>
</defs>
</svg>
