<svg width="24" height="24" viewBox="0 0 24 24" fill="none" xmlns="http://www.w3.org/2000/svg">
<path d="M12.9845 10.6201H15.6517C15.8041 10.6201 15.9503 10.5596 16.0581 10.4518C16.1659 10.344 16.2265 10.1978 16.2265 10.0453C16.2265 9.89286 16.1659 9.74665 16.0581 9.63885C15.9503 9.53105 15.8041 9.47049 15.6517 9.47049H14.3717L16.74 7.09455C16.8415 6.98558 16.8968 6.84146 16.8942 6.69254C16.8916 6.54362 16.8312 6.40153 16.7259 6.29622C16.6206 6.1909 16.4785 6.13057 16.3296 6.12794C16.1807 6.12532 16.0366 6.18059 15.9276 6.28213L13.5593 8.6504V7.37046C13.5593 7.21801 13.4988 7.0718 13.391 6.964C13.2832 6.8562 13.1369 6.79564 12.9845 6.79564C12.832 6.79564 12.6858 6.8562 12.578 6.964C12.4702 7.0718 12.4097 7.21801 12.4097 7.37046V10.0453C12.4097 10.1978 12.4702 10.344 12.578 10.4518C12.6858 10.5596 12.832 10.6201 12.9845 10.6201Z" fill="#5D74F1"/>
<path d="M11.131 11.9003C14.35 15.1193 15.0781 11.3944 17.1245 13.4332C19.1709 15.4719 20.2362 15.8014 17.7376 18.3077C17.4234 18.5606 15.4383 21.588 8.42548 14.5905C1.41263 7.59295 4.45537 5.60789 4.70829 5.29365C7.21452 2.77975 7.6054 3.92174 9.5828 5.89913C11.5602 7.87652 7.91197 8.68128 11.131 11.9003Z" fill="#5D74F1"/>
</svg>
