<svg width="140" height="48" viewBox="0 0 140 48" fill="none" xmlns="http://www.w3.org/2000/svg">
<g clip-path="url(#clip0_82_3246)">
<path fill-rule="evenodd" clip-rule="evenodd" d="M11.0309 0.685757C11.3817 -0.228586 12.6183 -0.228586 12.9691 0.685757L15.7036 7.81363L23.0248 8.33326C23.964 8.39992 24.3461 9.63095 23.6237 10.2627L17.9925 15.1876L19.7828 22.6367C20.0124 23.5922 19.012 24.3529 18.2148 23.8291L12 19.7449L5.78519 23.8291C4.98798 24.3529 3.98757 23.5922 4.21722 22.6367L6.00749 15.1876L0.376269 10.2627C-0.346087 9.63095 0.0360338 8.39992 0.97518 8.33326L8.29642 7.81363L11.0309 0.685757Z" fill="#FF9E0C"/>
<path fill-rule="evenodd" clip-rule="evenodd" d="M40.0309 0.685757C40.3817 -0.228586 41.6183 -0.228586 41.9691 0.685757L44.7036 7.81363L52.0248 8.33326C52.964 8.39992 53.3461 9.63095 52.6237 10.2627L46.9925 15.1876L48.7828 22.6367C49.0124 23.5922 48.012 24.3529 47.2148 23.8291L41 19.7449L34.7852 23.8291C33.988 24.3529 32.9876 23.5922 33.2172 22.6367L35.0075 15.1876L29.3763 10.2627C28.6539 9.63095 29.036 8.39992 29.9752 8.33326L37.2964 7.81363L40.0309 0.685757Z" fill="#FF9E0C"/>
<path fill-rule="evenodd" clip-rule="evenodd" d="M69.0309 0.685757C69.3817 -0.228586 70.6183 -0.228586 70.9691 0.685757L73.7036 7.81363L81.0248 8.33326C81.964 8.39992 82.3461 9.63095 81.6237 10.2627L75.9925 15.1876L77.7828 22.6367C78.0124 23.5922 77.012 24.3529 76.2148 23.8291L70 19.7449L63.7852 23.8291C62.988 24.3529 61.9876 23.5922 62.2172 22.6367L64.0075 15.1876L58.3763 10.2627C57.6539 9.63095 58.036 8.39992 58.9752 8.33326L66.2964 7.81363L69.0309 0.685757Z" fill="#FF9E0C"/>
<path fill-rule="evenodd" clip-rule="evenodd" d="M98.0309 0.685757C98.3817 -0.228586 99.6183 -0.228586 99.9691 0.685757L102.704 7.81363L110.025 8.33326C110.964 8.39992 111.346 9.63095 110.624 10.2627L104.993 15.1876L106.783 22.6367C107.012 23.5922 106.012 24.3529 105.215 23.8291L99 19.7449L92.7852 23.8291C91.988 24.3529 90.9876 23.5922 91.2172 22.6367L93.0075 15.1876L87.3763 10.2627C86.6539 9.63095 87.036 8.39992 87.9752 8.33326L95.2964 7.81363L98.0309 0.685757Z" fill="#FF9E0C"/>
<path fill-rule="evenodd" clip-rule="evenodd" d="M127.031 0.685757C127.382 -0.228586 128.618 -0.228586 128.969 0.685757L131.703 7.81363L139.025 8.33326C139.964 8.39992 140.346 9.63095 139.624 10.2627L133.992 15.1876L135.782 22.6367C136.012 23.5922 135.012 24.3529 134.214 23.8291L128 19.7449L121.785 23.8291C120.988 24.3529 119.988 23.5922 120.217 22.6367L122.007 15.1876L116.376 10.2627C115.654 9.63095 116.036 8.39992 116.975 8.33326L124.296 7.81363L127.031 0.685757Z" fill="#FF9E0C"/>
<path fill-rule="evenodd" clip-rule="evenodd" d="M11.0309 24.6858C11.3817 23.7714 12.6183 23.7714 12.9691 24.6858L15.7036 31.8136L23.0248 32.3333C23.964 32.3999 24.3461 33.631 23.6237 34.2627L17.9925 39.1876L19.7828 46.6367C20.0124 47.5922 19.012 48.3529 18.2148 47.8291L12 43.7449L5.78519 47.8291C4.98798 48.3529 3.98757 47.5922 4.21722 46.6367L6.00749 39.1876L0.376269 34.2627C-0.346087 33.631 0.0360338 32.3999 0.97518 32.3333L8.29642 31.8136L11.0309 24.6858Z" fill="#5B5B5B" fill-opacity="0.33"/>
<path fill-rule="evenodd" clip-rule="evenodd" d="M40.0309 24.6858C40.3817 23.7714 41.6183 23.7714 41.9691 24.6858L44.7036 31.8136L52.0248 32.3333C52.964 32.3999 53.3461 33.631 52.6237 34.2627L46.9925 39.1876L48.7828 46.6367C49.0124 47.5922 48.012 48.3529 47.2148 47.8291L41 43.7449L34.7852 47.8291C33.988 48.3529 32.9876 47.5922 33.2172 46.6367L35.0075 39.1876L29.3763 34.2627C28.6539 33.631 29.036 32.3999 29.9752 32.3333L37.2964 31.8136L40.0309 24.6858Z" fill="#5B5B5B" fill-opacity="0.33"/>
<path fill-rule="evenodd" clip-rule="evenodd" d="M69.0309 24.6858C69.3817 23.7714 70.6183 23.7714 70.9691 24.6858L73.7036 31.8136L81.0248 32.3333C81.964 32.3999 82.3461 33.631 81.6237 34.2627L75.9925 39.1876L77.7828 46.6367C78.0124 47.5922 77.012 48.3529 76.2148 47.8291L70 43.7449L63.7852 47.8291C62.988 48.3529 61.9876 47.5922 62.2172 46.6367L64.0075 39.1876L58.3763 34.2627C57.6539 33.631 58.036 32.3999 58.9752 32.3333L66.2964 31.8136L69.0309 24.6858Z" fill="#5B5B5B" fill-opacity="0.33"/>
<path fill-rule="evenodd" clip-rule="evenodd" d="M98.0309 24.6858C98.3817 23.7714 99.6183 23.7714 99.9691 24.6858L102.704 31.8136L110.025 32.3333C110.964 32.3999 111.346 33.631 110.624 34.2627L104.993 39.1876L106.783 46.6367C107.012 47.5922 106.012 48.3529 105.215 47.8291L99 43.7449L92.7852 47.8291C91.988 48.3529 90.9876 47.5922 91.2172 46.6367L93.0075 39.1876L87.3763 34.2627C86.6539 33.631 87.036 32.3999 87.9752 32.3333L95.2964 31.8136L98.0309 24.6858Z" fill="#5B5B5B" fill-opacity="0.33"/>
<path fill-rule="evenodd" clip-rule="evenodd" d="M127.031 24.6858C127.382 23.7714 128.618 23.7714 128.969 24.6858L131.703 31.8136L139.025 32.3333C139.964 32.3999 140.346 33.631 139.624 34.2627L133.992 39.1876L135.782 46.6367C136.012 47.5922 135.012 48.3529 134.214 47.8291L128 43.7449L121.785 47.8291C120.988 48.3529 119.988 47.5922 120.217 46.6367L122.007 39.1876L116.376 34.2627C115.654 33.631 116.036 32.3999 116.975 32.3333L124.296 31.8136L127.031 24.6858Z" fill="#5B5B5B" fill-opacity="0.33"/>
</g>
<defs>
<clipPath id="clip0_82_3246">
<rect width="140" height="48" fill="white"/>
</clipPath>
</defs>
</svg>
