<svg width="14" height="15" viewBox="0 0 14 15" fill="none" xmlns="http://www.w3.org/2000/svg">
<path d="M7 0.138672C3.143 0.138672 0 3.28167 0 7.13867C0 10.9957 3.143 14.1387 7 14.1387C10.857 14.1387 14 10.9957 14 7.13867C14 3.28167 10.857 0.138672 7 0.138672ZM10.192 5.96967L7.31501 8.13267C7.30101 8.13967 7.28 8.14668 7.266 8.16068C7.245 8.16768 7.23099 8.17468 7.20999 8.18168C7.14699 8.21668 7.07 8.23768 7 8.23768C6.93 8.23768 6.85999 8.21667 6.79699 8.18867C6.78299 8.18167 6.76901 8.17467 6.74801 8.16767C6.73401 8.16067 6.71999 8.15367 6.70599 8.14667L4.60599 6.70468C4.36799 6.54367 4.30501 6.21467 4.47301 5.97667C4.63401 5.73867 4.96299 5.67567 5.20099 5.83667L6.98601 7.06167L9.562 5.12968C9.793 4.95468 10.122 5.00367 10.297 5.23467C10.472 5.46567 10.423 5.79467 10.192 5.96967Z" fill="#C0C0C0"/>
</svg>
