<svg width="37" height="37" viewBox="0 0 37 37" fill="none" xmlns="http://www.w3.org/2000/svg">
<path d="M36.3076 18.0513C36.3076 8.08183 28.2258 0 18.2564 0C8.28691 0 0.205078 8.08183 0.205078 18.0513C0.205078 28.0207 8.28691 36.1026 18.2564 36.1026C28.2258 36.1026 36.3076 28.0207 36.3076 18.0513Z" fill="#0077FF"/>
<path d="M19.4786 24.1529C13.0478 24.1529 9.38114 19.7529 9.23071 12.4196H12.4649C12.5683 17.7973 14.9376 20.0725 16.8179 20.5426V12.4196H19.8546V17.0546C21.7068 16.8572 23.6623 14.7418 24.3205 12.4102H27.3478C27.101 13.6171 26.6079 14.7602 25.8993 15.768C25.1908 16.7758 24.2821 17.6267 23.2299 18.2674C24.4041 18.8519 25.441 19.6786 26.2724 20.6931C27.1038 21.7075 27.7106 22.8867 28.0529 24.1529H24.7153C24.0008 21.9247 22.2145 20.1948 19.8546 19.9597V24.1529H19.488H19.4786Z" fill="white"/>
</svg>
