<svg width="24" height="24" viewBox="0 0 24 24" fill="none" xmlns="http://www.w3.org/2000/svg">
<g id="vuesax/outline/filter">
<g id="filter">
<path id="Vector" d="M10.9404 22.65C10.4604 22.65 9.99039 22.53 9.55039 22.29C8.67039 21.8 8.14039 20.91 8.14039 19.91V14.61C8.14039 14.11 7.81039 13.36 7.50039 12.98L3.76039 9.02001C3.13039 8.39001 2.65039 7.31001 2.65039 6.50001V4.20001C2.65039 2.60001 3.86039 1.35001 5.40039 1.35001H18.6004C20.1204 1.35001 21.3504 2.58001 21.3504 4.10001V6.30001C21.3504 7.35001 20.7204 8.54001 20.1304 9.13001L15.8004 12.96C15.3804 13.31 15.0504 14.08 15.0504 14.7V19C15.0504 19.89 14.4904 20.92 13.7904 21.34L12.4104 22.23C11.9604 22.51 11.4504 22.65 10.9404 22.65ZM5.40039 2.85001C4.70039 2.85001 4.15039 3.44001 4.15039 4.20001V6.50001C4.15039 6.87001 4.45039 7.59001 4.83039 7.97001L8.64039 11.98C9.15039 12.61 9.65039 13.66 9.65039 14.6V19.9C9.65039 20.55 10.1004 20.87 10.2904 20.97C10.7104 21.2 11.2204 21.2 11.6104 20.96L13.0004 20.07C13.2804 19.9 13.5604 19.36 13.5604 19V14.7C13.5604 13.63 14.0804 12.45 14.8304 11.82L19.1104 8.03001C19.4504 7.69001 19.8604 6.88001 19.8604 6.29001V4.10001C19.8604 3.41001 19.3004 2.85001 18.6104 2.85001H5.40039Z" fill="#282828"/>
</g>
</g>
</svg>
