<svg width="24" height="24" viewBox="0 0 24 24" fill="none" xmlns="http://www.w3.org/2000/svg">
<g id="Location">
<path id="Vector" d="M11.5097 2.41104C7.56772 2.41104 4.36426 5.61451 4.36426 9.5565C4.36426 14.2466 10.2916 20.8837 10.541 21.1619C10.7904 21.44 11.1453 21.5935 11.5097 21.5935C11.8742 21.5935 12.2291 21.44 12.4784 21.1619C13.1114 20.4617 18.6552 14.1411 18.6552 9.5565C18.6552 5.61451 15.4517 2.41104 11.5097 2.41104ZM8.51726 9.5565C8.51726 7.90681 9.86003 6.56404 11.5097 6.56404C13.1594 6.56404 14.5022 7.90681 14.5022 9.5565C14.5022 11.2062 13.1594 12.549 11.5097 12.549C9.86003 12.549 8.51726 11.2062 8.51726 9.5565Z" fill="#C0C0C0"/>
</g>
</svg>
