<svg width="24" height="24" viewBox="0 0 24 24" fill="none" xmlns="http://www.w3.org/2000/svg">
<path d="M9.20874 19.7271C8.12548 19.7271 7.07894 19.4976 6.09666 19.0386L2.73671 19.5251C2.51639 19.5619 2.30525 19.4792 2.14918 19.3324C1.99312 19.1763 1.91967 18.956 1.95639 18.7448L2.47049 15.339C2.10329 14.4577 1.91968 13.5397 1.91968 12.6125C1.91968 10.7581 2.64491 8.99548 3.96685 7.66435C4.23308 7.38895 4.67372 7.39813 4.93995 7.66435C5.20617 7.93058 5.21535 8.37123 4.93995 8.63745C3.87505 9.71153 3.28753 11.1161 3.28753 12.6125C3.28753 13.4111 3.46194 14.2098 3.81079 14.9718C3.88423 15.1278 3.89341 15.3023 3.83833 15.4675L3.45277 18.0379L6.10583 17.6524C6.24354 17.634 6.38124 17.6524 6.50976 17.7166C7.53794 18.2307 8.68547 18.4327 9.79627 18.3225C10.1635 18.2766 10.5123 18.5612 10.549 18.9376C10.5858 19.314 10.3104 19.6537 9.93397 19.6904C9.70446 19.7179 9.4566 19.7271 9.20874 19.7271Z" fill="#5D74F1"/>
<path d="M20.1425 10.6157C20.1425 6.65232 16.9102 3.42224 12.9445 3.42224C10.9979 3.42224 9.18709 4.18335 7.84709 5.54778C6.49804 6.91221 5.75562 8.7036 5.75562 10.6157C5.75562 14.579 8.97885 17.8091 12.9445 17.8091C13.3067 17.8091 13.6507 17.7812 13.9405 17.7348C13.9495 17.7348 13.9676 17.7348 13.9767 17.7255C14.6919 17.6234 15.371 17.4192 16.0138 17.1129L19.3276 17.6049C19.5449 17.642 19.7531 17.5678 19.9071 17.41C20.0519 17.2522 20.1244 17.0294 20.0972 16.8159L19.5902 13.3631C19.9523 12.4813 20.1425 11.5531 20.1425 10.6157ZM10.7263 10.8477C10.6357 11.1354 10.3641 11.3396 10.0472 11.3396C9.64885 11.3396 9.3229 11.0148 9.3229 10.6157C9.3229 10.2165 9.64885 9.89168 10.0472 9.89168C10.1287 9.89168 10.2011 9.90096 10.2736 9.92881C10.5633 10.0216 10.7716 10.3001 10.7716 10.6157C10.7716 10.6992 10.7534 10.7735 10.7263 10.8477ZM12.9445 11.3396C12.5461 11.3396 12.2202 11.0148 12.2202 10.6157C12.2202 10.2165 12.5461 9.89168 12.9445 9.89168C13.3429 9.89168 13.6688 10.2165 13.6688 10.6157C13.6688 11.0148 13.3429 11.3396 12.9445 11.3396ZM15.8418 11.3396C15.4434 11.3396 15.1175 11.0148 15.1175 10.6157C15.1175 10.2165 15.4434 9.89168 15.8418 9.89168C16.2402 9.89168 16.5661 10.2165 16.5661 10.6157C16.5661 11.0148 16.2402 11.3396 15.8418 11.3396Z" fill="#5D74F1"/>
</svg>
